<svg width="24" height="24" viewBox="0 0 24 24" fill="none" xmlns="http://www.w3.org/2000/svg">
<path d="M16 4.5C16 4.10218 16.158 3.72064 16.4393 3.43934C16.7206 3.15804 17.1022 3 17.5 3H19.5C19.8978 3 20.2794 3.15804 20.5607 3.43934C20.842 3.72064 21 4.10218 21 4.5V19.5C21 19.8978 20.842 20.2794 20.5607 20.5607C20.2794 20.842 19.8978 21 19.5 21H17.5C17.1022 21 16.7206 20.842 16.4393 20.5607C16.158 20.2794 16 19.8978 16 19.5V4.5ZM9.5 10.5C9.5 10.1022 9.65804 9.72064 9.93934 9.43934C10.2206 9.15804 10.6022 9 11 9H13C13.3978 9 13.7794 9.15804 14.0607 9.43934C14.342 9.72064 14.5 10.1022 14.5 10.5V19.5C14.5 19.8978 14.342 20.2794 14.0607 20.5607C13.7794 20.842 13.3978 21 13 21H11C10.6022 21 10.2206 20.842 9.93934 20.5607C9.65804 20.2794 9.5 19.8978 9.5 19.5V10.5ZM4.5 15C4.10218 15 3.72064 15.158 3.43934 15.4393C3.15804 15.7206 3 16.1022 3 16.5V19.5C3 19.8978 3.15804 20.2794 3.43934 20.5607C3.72064 20.842 4.10218 21 4.5 21H6.5C6.89782 21 7.27936 20.842 7.56066 20.5607C7.84196 20.2794 8 19.8978 8 19.5V16.5C8 16.1022 7.84196 15.7206 7.56066 15.4393C7.27936 15.158 6.89782 15 6.5 15H4.5Z" fill="#FFE4E4"/>
</svg>
